<svg width="16" height="14" viewBox="0 0 16 14" fill="none" xmlns="http://www.w3.org/2000/svg">
<path d="M5.71429 2.47573H10.2857V1.33287H5.71429V2.47573ZM16 8.19001V12.4757C16 12.8686 15.8601 13.2049 15.5804 13.4847C15.3006 13.7644 14.9643 13.9043 14.5714 13.9043H1.42857C1.03571 13.9043 0.699405 13.7644 0.419643 13.4847C0.139881 13.2049 0 12.8686 0 12.4757V8.19001H6V9.61858C6 9.77334 6.05655 9.90727 6.16964 10.0204C6.28274 10.1335 6.41667 10.19 6.57143 10.19H9.42857C9.58333 10.19 9.71726 10.1335 9.83036 10.0204C9.94345 9.90727 10 9.77334 10 9.61858V8.19001H16ZM9.14286 8.19001V9.33287H6.85714V8.19001H9.14286ZM16 3.9043V7.33287H0V3.9043C0 3.51144 0.139881 3.17513 0.419643 2.89537C0.699405 2.61561 1.03571 2.47573 1.42857 2.47573H4.57143V1.04715C4.57143 0.809058 4.65476 0.606677 4.82143 0.440011C4.9881 0.273344 5.19048 0.19001 5.42857 0.19001H10.5714C10.8095 0.19001 11.0119 0.273344 11.1786 0.440011C11.3452 0.606677 11.4286 0.809058 11.4286 1.04715V2.47573H14.5714C14.9643 2.47573 15.3006 2.61561 15.5804 2.89537C15.8601 3.17513 16 3.51144 16 3.9043Z" fill="url(#paint0_linear_1_10623)"/>
<defs>
<linearGradient id="paint0_linear_1_10623" x1="8" y1="0.19001" x2="8" y2="13.9043" gradientUnits="userSpaceOnUse">
<stop stop-color="#3408A4"/>
<stop offset="1" stop-color="#AA6C5E"/>
</linearGradient>
</defs>
</svg>
