<svg width="14" height="17" viewBox="0 0 14 17" fill="none" xmlns="http://www.w3.org/2000/svg">
<path d="M13.1101 4.0828C13.2767 4.24946 13.4196 4.47566 13.5386 4.76137C13.6577 5.04708 13.7172 5.30899 13.7172 5.54708V15.8328C13.7172 16.0709 13.6339 16.2733 13.4672 16.4399C13.3005 16.6066 13.0982 16.6899 12.8601 16.6899H0.860073C0.621977 16.6899 0.419596 16.6066 0.25293 16.4399C0.086263 16.2733 0.00292969 16.0709 0.00292969 15.8328V1.54708C0.00292969 1.30899 0.086263 1.10661 0.25293 0.93994C0.419596 0.773274 0.621977 0.689941 0.860073 0.689941H8.86007C9.09817 0.689941 9.36007 0.749464 9.64579 0.868512C9.9315 0.987559 10.1577 1.13042 10.3244 1.29708L13.1101 4.0828ZM9.14579 1.90423V5.26137H12.5029C12.4434 5.08875 12.3779 4.96673 12.3065 4.8953L9.51186 2.10065C9.44043 2.02923 9.31841 1.96375 9.14579 1.90423ZM12.5744 15.5471V6.40423H8.86007C8.62198 6.40423 8.4196 6.32089 8.25293 6.15423C8.08626 5.98756 8.00293 5.78518 8.00293 5.54708V1.8328H1.14579V15.5471H12.5744ZM3.4315 7.8328C3.4315 7.74946 3.45829 7.68101 3.51186 7.62744C3.56543 7.57387 3.63388 7.54708 3.71722 7.54708H10.0029C10.0863 7.54708 10.1547 7.57387 10.2083 7.62744C10.2619 7.68101 10.2886 7.74946 10.2886 7.8328V8.40423C10.2886 8.48756 10.2619 8.55601 10.2083 8.60958C10.1547 8.66316 10.0863 8.68994 10.0029 8.68994H3.71722C3.63388 8.68994 3.56543 8.66316 3.51186 8.60958C3.45829 8.55601 3.4315 8.48756 3.4315 8.40423V7.8328ZM10.0029 9.8328C10.0863 9.8328 10.1547 9.85958 10.2083 9.91316C10.2619 9.96673 10.2886 10.0352 10.2886 10.1185V10.6899C10.2886 10.7733 10.2619 10.8417 10.2083 10.8953C10.1547 10.9489 10.0863 10.9757 10.0029 10.9757H3.71722C3.63388 10.9757 3.56543 10.9489 3.51186 10.8953C3.45829 10.8417 3.4315 10.7733 3.4315 10.6899V10.1185C3.4315 10.0352 3.45829 9.96673 3.51186 9.91316C3.56543 9.85958 3.63388 9.8328 3.71722 9.8328H10.0029ZM10.0029 12.1185C10.0863 12.1185 10.1547 12.1453 10.2083 12.1989C10.2619 12.2524 10.2886 12.3209 10.2886 12.4042V12.9757C10.2886 13.059 10.2619 13.1274 10.2083 13.181C10.1547 13.2346 10.0863 13.2614 10.0029 13.2614H3.71722C3.63388 13.2614 3.56543 13.2346 3.51186 13.181C3.45829 13.1274 3.4315 13.059 3.4315 12.9757V12.4042C3.4315 12.3209 3.45829 12.2524 3.51186 12.1989C3.56543 12.1453 3.63388 12.1185 3.71722 12.1185H10.0029Z" fill="white"/>
</svg>
