<svg width="11" height="13" viewBox="0 0 11 13" fill="none" xmlns="http://www.w3.org/2000/svg">
<path d="M2.86422 6.04715H7.43565V4.33287C7.43565 3.70192 7.21244 3.16323 6.76601 2.7168C6.31958 2.27037 5.78089 2.04715 5.14994 2.04715C4.51899 2.04715 3.98029 2.27037 3.53387 2.7168C3.08744 3.16323 2.86422 3.70192 2.86422 4.33287V6.04715ZM10.2928 6.9043V12.0472C10.2928 12.2852 10.2095 12.4876 10.0428 12.6543C9.87613 12.821 9.67375 12.9043 9.43565 12.9043H0.864223C0.626128 12.9043 0.423747 12.821 0.25708 12.6543C0.0904134 12.4876 0.00708008 12.2852 0.00708008 12.0472V6.9043C0.00708008 6.6662 0.0904134 6.46382 0.25708 6.29715C0.423747 6.13049 0.626128 6.04715 0.864223 6.04715H1.14994V4.33287C1.14994 3.23763 1.54279 2.29715 2.32851 1.51144C3.11422 0.725725 4.0547 0.332868 5.14994 0.332868C6.24518 0.332868 7.18565 0.725725 7.97137 1.51144C8.75708 2.29715 9.14994 3.23763 9.14994 4.33287V6.04715H9.43565C9.67375 6.04715 9.87613 6.13049 10.0428 6.29715C10.2095 6.46382 10.2928 6.6662 10.2928 6.9043Z" fill="url(#paint0_linear_1_10634)"/>
<defs>
<linearGradient id="paint0_linear_1_10634" x1="5.14994" y1="0.332868" x2="5.14994" y2="12.9043" gradientUnits="userSpaceOnUse">
<stop stop-color="#3408A4"/>
<stop offset="1" stop-color="#AA6C5E"/>
</linearGradient>
</defs>
</svg>
