<svg width="16" height="13" viewBox="0 0 16 13" fill="none" xmlns="http://www.w3.org/2000/svg">
<path d="M2.92857 10.0472C2.92857 10.0472 3.0119 10.1305 3.17857 10.2972C3.34524 10.4638 3.42857 10.7852 3.42857 11.2614C3.42857 11.7376 3.2619 12.1424 2.92857 12.4757C2.59524 12.8091 2.19048 12.9757 1.71429 12.9757C1.2381 12.9757 0.833333 12.8091 0.5 12.4757C0.166667 12.1424 0 11.7376 0 11.2614C0 10.7852 0.166667 10.3805 0.5 10.0472C0.833333 9.71382 1.2381 9.54715 1.71429 9.54715C2.19048 9.54715 2.59524 9.71382 2.92857 10.0472ZM2.92857 5.47572C2.92857 5.47572 3.0119 5.55906 3.17857 5.72572C3.34524 5.89239 3.42857 6.21382 3.42857 6.69001C3.42857 7.1662 3.2619 7.57096 2.92857 7.90429C2.59524 8.23763 2.19048 8.40429 1.71429 8.40429C1.2381 8.40429 0.833333 8.23763 0.5 7.90429C0.166667 7.57096 0 7.1662 0 6.69001C0 6.21382 0.166667 5.80906 0.5 5.47572C0.833333 5.14239 1.2381 4.97572 1.71429 4.97572C2.19048 4.97572 2.59524 5.14239 2.92857 5.47572ZM16 10.4043V12.1186C16 12.196 15.9717 12.2629 15.9152 12.3195C15.8586 12.376 15.7917 12.4043 15.7143 12.4043H4.85714C4.77976 12.4043 4.7128 12.376 4.65625 12.3195C4.5997 12.2629 4.57143 12.196 4.57143 12.1186V10.4043C4.57143 10.3269 4.5997 10.2599 4.65625 10.2034C4.7128 10.1469 4.77976 10.1186 4.85714 10.1186H15.7143C15.7917 10.1186 15.8586 10.1469 15.9152 10.2034C15.9717 10.2599 16 10.3269 16 10.4043ZM2.92857 0.904294C2.92857 0.904294 3.0119 0.987627 3.17857 1.15429C3.34524 1.32096 3.42857 1.64239 3.42857 2.11858C3.42857 2.59477 3.2619 2.99953 2.92857 3.33287C2.59524 3.6662 2.19048 3.83287 1.71429 3.83287C1.2381 3.83287 0.833333 3.6662 0.5 3.33287C0.166667 2.99953 0 2.59477 0 2.11858C0 1.64239 0.166667 1.23763 0.5 0.904294C0.833333 0.570961 1.2381 0.404294 1.71429 0.404294C2.19048 0.404294 2.59524 0.570961 2.92857 0.904294ZM16 5.83287V7.54715C16 7.62453 15.9717 7.6915 15.9152 7.74804C15.8586 7.80459 15.7917 7.83287 15.7143 7.83287H4.85714C4.77976 7.83287 4.7128 7.80459 4.65625 7.74804C4.5997 7.6915 4.57143 7.62453 4.57143 7.54715V5.83287C4.57143 5.75549 4.5997 5.68852 4.65625 5.63197C4.7128 5.57543 4.77976 5.54715 4.85714 5.54715H15.7143C15.7917 5.54715 15.8586 5.57543 15.9152 5.63197C15.9717 5.68852 16 5.75549 16 5.83287ZM16 1.26144V2.97572C16 3.0531 15.9717 3.12007 15.9152 3.17662C15.8586 3.23316 15.7917 3.26144 15.7143 3.26144H4.85714C4.77976 3.26144 4.7128 3.23316 4.65625 3.17662C4.5997 3.12007 4.57143 3.0531 4.57143 2.97572V1.26144C4.57143 1.18406 4.5997 1.11709 4.65625 1.06054C4.7128 1.004 4.77976 0.975722 4.85714 0.975722H15.7143C15.7917 0.975722 15.8586 1.004 15.9152 1.06054C15.9717 1.11709 16 1.18406 16 1.26144Z" fill="url(#paint0_linear_1_10611)"/>
<defs>
<linearGradient id="paint0_linear_1_10611" x1="8" y1="12.9757" x2="8" y2="0.404294" gradientUnits="userSpaceOnUse">
<stop stop-color="#3408A4"/>
<stop offset="1" stop-color="#A96B5F"/>
</linearGradient>
</defs>
</svg>
