<svg width="15" height="17" viewBox="0 0 15 17" fill="none" xmlns="http://www.w3.org/2000/svg">
<path d="M1.14432 15.0471H3.71575V12.4757H1.14432V15.0471ZM4.28718 15.0471H7.14432V12.4757H4.28718V15.0471ZM1.14432 11.9042H3.71575V9.04708H1.14432V11.9042ZM4.28718 11.9042H7.14432V9.04708H4.28718V11.9042ZM1.14432 8.47566H3.71575V5.90423H1.14432V8.47566ZM7.71575 15.0471H10.5729V12.4757H7.71575V15.0471ZM4.28718 8.47566H7.14432V5.90423H4.28718V8.47566ZM11.1443 15.0471H13.7158V12.4757H11.1443V15.0471ZM7.71575 11.9042H10.5729V9.04708H7.71575V11.9042ZM4.57289 4.18994V1.61851C4.57289 1.54113 4.54462 1.47417 4.48807 1.41762C4.43152 1.36107 4.36456 1.3328 4.28718 1.3328H3.71575C3.63837 1.3328 3.57141 1.36107 3.51486 1.41762C3.45831 1.47417 3.43004 1.54113 3.43004 1.61851V4.18994C3.43004 4.26732 3.45831 4.33429 3.51486 4.39083C3.57141 4.44738 3.63837 4.47566 3.71575 4.47566H4.28718C4.36456 4.47566 4.43152 4.44738 4.48807 4.39083C4.54462 4.33429 4.57289 4.26732 4.57289 4.18994ZM11.1443 11.9042H13.7158V9.04708H11.1443V11.9042ZM7.71575 8.47566H10.5729V5.90423H7.71575V8.47566ZM11.1443 8.47566H13.7158V5.90423H11.1443V8.47566ZM11.43 4.18994V1.61851C11.43 1.54113 11.4018 1.47417 11.3452 1.41762C11.2887 1.36107 11.2217 1.3328 11.1443 1.3328H10.5729C10.4955 1.3328 10.4285 1.36107 10.372 1.41762C10.3155 1.47417 10.2872 1.54113 10.2872 1.61851V4.18994C10.2872 4.26732 10.3155 4.33429 10.372 4.39083C10.4285 4.44738 10.4955 4.47566 10.5729 4.47566H11.1443C11.2217 4.47566 11.2887 4.44738 11.3452 4.39083C11.4018 4.33429 11.43 4.26732 11.43 4.18994ZM14.8586 3.61851V15.0471C14.8586 15.3566 14.7455 15.6245 14.5193 15.8507C14.2931 16.0768 14.0253 16.1899 13.7158 16.1899H1.14432C0.834798 16.1899 0.566941 16.0768 0.340751 15.8507C0.11456 15.6245 0.00146484 15.3566 0.00146484 15.0471V3.61851C0.00146484 3.30899 0.11456 3.04113 0.340751 2.81494C0.566941 2.58875 0.834798 2.47565 1.14432 2.47565H2.28718V1.61851C2.28718 1.22565 2.42706 0.889345 2.70682 0.609584C2.98658 0.329822 3.32289 0.189941 3.71575 0.189941H4.28718C4.68004 0.189941 5.01635 0.329822 5.29611 0.609584C5.57587 0.889345 5.71575 1.22565 5.71575 1.61851V2.47565H9.14432V1.61851C9.14432 1.22565 9.2842 0.889345 9.56396 0.609584C9.84373 0.329822 10.18 0.189941 10.5729 0.189941H11.1443C11.5372 0.189941 11.8735 0.329822 12.1533 0.609584C12.433 0.889345 12.5729 1.22565 12.5729 1.61851V2.47565H13.7158C14.0253 2.47565 14.2931 2.58875 14.5193 2.81494C14.7455 3.04113 14.8586 3.30899 14.8586 3.61851Z" fill="url(#paint0_linear_1_10614)"/>
<defs>
<linearGradient id="paint0_linear_1_10614" x1="7.43004" y1="0.189941" x2="7.43004" y2="16.1899" gradientUnits="userSpaceOnUse">
<stop stop-color="#3408A4"/>
<stop offset="1" stop-color="#AA6C5E"/>
</linearGradient>
</defs>
</svg>
