<svg width="16" height="17" viewBox="0 0 16 17" fill="none" xmlns="http://www.w3.org/2000/svg">
<g clip-path="url(#clip0_1_9977)">
<path d="M3.09375 11.2838C3.09375 11.2838 3.14955 11.228 3.26116 11.1163C3.37277 11.0047 3.42857 10.7912 3.42857 10.4757C3.42857 10.1602 3.31696 9.8909 3.09375 9.66769C2.87054 9.44447 2.60119 9.33286 2.28571 9.33286C1.97024 9.33286 1.70089 9.44447 1.47768 9.66769C1.25446 9.8909 1.14286 10.1602 1.14286 10.4757C1.14286 10.7912 1.25446 11.0605 1.47768 11.2838C1.70089 11.507 1.97024 11.6186 2.28571 11.6186C2.60119 11.6186 2.87054 11.507 3.09375 11.2838ZM4.80804 7.28376C4.80804 7.28376 4.86384 7.22795 4.97545 7.11635C5.08705 7.00474 5.14286 6.7912 5.14286 6.47572C5.14286 6.16024 5.03125 5.8909 4.80804 5.66768C4.58482 5.44447 4.31548 5.33286 4 5.33286C3.68452 5.33286 3.41518 5.44447 3.19196 5.66768C2.96875 5.8909 2.85714 6.16024 2.85714 6.47572C2.85714 6.7912 2.96875 7.06054 3.19196 7.28376C3.41518 7.50697 3.68452 7.61858 4 7.61858C4.31548 7.61858 4.58482 7.50697 4.80804 7.28376ZM8.96429 10.7704L9.86607 7.35965C9.90179 7.20489 9.87947 7.06054 9.79911 6.92661C9.71875 6.79268 9.60417 6.70489 9.45536 6.66322C9.30655 6.62155 9.16369 6.6409 9.02679 6.72126C8.88988 6.80161 8.8006 6.91917 8.75893 7.07394L7.85714 10.4846C7.5 10.5144 7.18155 10.6439 6.90179 10.873C6.62202 11.1022 6.43452 11.3954 6.33929 11.7525C6.22024 12.2108 6.27976 12.6454 6.51786 13.0561C6.75595 13.4668 7.10417 13.7317 7.5625 13.8507C8.02083 13.9698 8.45536 13.9102 8.86607 13.6721C9.27679 13.4341 9.54167 13.0858 9.66072 12.6275C9.75595 12.2704 9.7381 11.9221 9.60714 11.5829C9.47619 11.2436 9.2619 10.9727 8.96429 10.7704ZM14.5223 11.2838C14.5223 11.2838 14.5781 11.228 14.6897 11.1163C14.8013 11.0047 14.8571 10.7912 14.8571 10.4757C14.8571 10.1602 14.7455 9.8909 14.5223 9.66769C14.2991 9.44447 14.0298 9.33286 13.7143 9.33286C13.3988 9.33286 13.1295 9.44447 12.9063 9.66769C12.683 9.8909 12.5714 10.1602 12.5714 10.4757C12.5714 10.7912 12.683 11.0605 12.9063 11.2838C13.1295 11.507 13.3988 11.6186 13.7143 11.6186C14.0298 11.6186 14.2991 11.507 14.5223 11.2838ZM8.80804 5.56947C8.80804 5.56947 8.86384 5.51367 8.97545 5.40206C9.08705 5.29045 9.14286 5.07691 9.14286 4.76143C9.14286 4.44596 9.03125 4.17661 8.80804 3.9534C8.58482 3.73018 8.31548 3.61858 8 3.61858C7.68452 3.61858 7.41518 3.73018 7.19196 3.9534C6.96875 4.17661 6.85714 4.44596 6.85714 4.76143C6.85714 5.07691 6.96875 5.34626 7.19196 5.56947C7.41518 5.79268 7.68452 5.90429 8 5.90429C8.31548 5.90429 8.58482 5.79268 8.80804 5.56947ZM12.808 7.28376C12.808 7.28376 12.8638 7.22795 12.9754 7.11635C13.0871 7.00474 13.1429 6.7912 13.1429 6.47572C13.1429 6.16024 13.0313 5.8909 12.808 5.66768C12.5848 5.44447 12.3155 5.33286 12 5.33286C11.6845 5.33286 11.4152 5.44447 11.192 5.66768C10.9688 5.8909 10.8571 6.16024 10.8571 6.47572C10.8571 6.7912 10.9688 7.06054 11.192 7.28376C11.4152 7.50697 11.6845 7.61858 12 7.61858C12.3155 7.61858 12.5848 7.50697 12.808 7.28376ZM16 10.4757C16 12.0293 15.5804 13.4668 14.7411 14.7882C14.628 14.9608 14.4673 15.0471 14.2589 15.0471H1.74107C1.53274 15.0471 1.37202 14.9608 1.25893 14.7882C0.419643 13.4727 0 12.0352 0 10.4757C0 9.39239 0.21131 8.35667 0.633929 7.36858C1.05655 6.38048 1.625 5.52929 2.33929 4.81501C3.05357 4.10072 3.90476 3.53227 4.89286 3.10965C5.88095 2.68703 6.91667 2.47572 8 2.47572C9.08333 2.47572 10.119 2.68703 11.1071 3.10965C12.0952 3.53227 12.9464 4.10072 13.6607 4.81501C14.375 5.52929 14.9435 6.38048 15.3661 7.36858C15.7887 8.35667 16 9.39239 16 10.4757Z" fill="url(#paint0_linear_1_9977)"/>
</g>
<defs>
<linearGradient id="paint0_linear_1_9977" x1="8" y1="15.0471" x2="8" y2="2.47572" gradientUnits="userSpaceOnUse">
<stop stop-color="#3408A4"/>
<stop offset="1" stop-color="#AA6C5E"/>
</linearGradient>
<clipPath id="clip0_1_9977">
<rect width="16" height="16" fill="white" transform="matrix(1 0 0 -1 0 16.19)"/>
</clipPath>
</defs>
</svg>
