<svg width="16" height="17" viewBox="0 0 16 17" fill="none" xmlns="http://www.w3.org/2000/svg">
<g clip-path="url(#clip0_1_10608)">
<path d="M3.09375 11.2837C3.09375 11.2837 3.14955 11.2279 3.26116 11.1163C3.37277 11.0047 3.42857 10.7911 3.42857 10.4757C3.42857 10.1602 3.31696 9.89084 3.09375 9.66762C2.87054 9.44441 2.60119 9.3328 2.28571 9.3328C1.97024 9.3328 1.70089 9.44441 1.47768 9.66762C1.25446 9.89084 1.14286 10.1602 1.14286 10.4757C1.14286 10.7911 1.25446 11.0605 1.47768 11.2837C1.70089 11.5069 1.97024 11.6185 2.28571 11.6185C2.60119 11.6185 2.87054 11.5069 3.09375 11.2837ZM4.80804 7.2837C4.80804 7.2837 4.86384 7.22789 4.97545 7.11628C5.08705 7.00468 5.14286 6.79114 5.14286 6.47566C5.14286 6.16018 5.03125 5.89084 4.80804 5.66762C4.58482 5.44441 4.31548 5.3328 4 5.3328C3.68452 5.3328 3.41518 5.44441 3.19196 5.66762C2.96875 5.89084 2.85714 6.16018 2.85714 6.47566C2.85714 6.79114 2.96875 7.06048 3.19196 7.2837C3.41518 7.50691 3.68452 7.61852 4 7.61852C4.31548 7.61852 4.58482 7.50691 4.80804 7.2837ZM8.96429 10.7703L9.86607 7.35959C9.90179 7.20483 9.87947 7.06048 9.79911 6.92655C9.71875 6.79262 9.60417 6.70483 9.45536 6.66316C9.30655 6.62149 9.16369 6.64084 9.02679 6.7212C8.88988 6.80155 8.8006 6.91911 8.75893 7.07387L7.85714 10.4846C7.5 10.5144 7.18155 10.6438 6.90179 10.873C6.62202 11.1021 6.43452 11.3953 6.33929 11.7524C6.22024 12.2108 6.27976 12.6453 6.51786 13.056C6.75595 13.4667 7.10417 13.7316 7.5625 13.8507C8.02083 13.9697 8.45536 13.9102 8.86607 13.6721C9.27679 13.434 9.54167 13.0858 9.66072 12.6274C9.75595 12.2703 9.7381 11.9221 9.60714 11.5828C9.47619 11.2435 9.2619 10.9727 8.96429 10.7703ZM14.5223 11.2837C14.5223 11.2837 14.5781 11.2279 14.6897 11.1163C14.8013 11.0047 14.8571 10.7911 14.8571 10.4757C14.8571 10.1602 14.7455 9.89084 14.5223 9.66762C14.2991 9.44441 14.0298 9.3328 13.7143 9.3328C13.3988 9.3328 13.1295 9.44441 12.9063 9.66762C12.683 9.89084 12.5714 10.1602 12.5714 10.4757C12.5714 10.7911 12.683 11.0605 12.9063 11.2837C13.1295 11.5069 13.3988 11.6185 13.7143 11.6185C14.0298 11.6185 14.2991 11.5069 14.5223 11.2837ZM8.80804 5.56941C8.80804 5.56941 8.86384 5.51361 8.97545 5.402C9.08705 5.29039 9.14286 5.07685 9.14286 4.76137C9.14286 4.4459 9.03125 4.17655 8.80804 3.95334C8.58482 3.73012 8.31548 3.61852 8 3.61852C7.68452 3.61852 7.41518 3.73012 7.19196 3.95334C6.96875 4.17655 6.85714 4.4459 6.85714 4.76137C6.85714 5.07685 6.96875 5.3462 7.19196 5.56941C7.41518 5.79262 7.68452 5.90423 8 5.90423C8.31548 5.90423 8.58482 5.79262 8.80804 5.56941ZM12.808 7.2837C12.808 7.2837 12.8638 7.22789 12.9754 7.11628C13.0871 7.00468 13.1429 6.79114 13.1429 6.47566C13.1429 6.16018 13.0313 5.89084 12.808 5.66762C12.5848 5.44441 12.3155 5.3328 12 5.3328C11.6845 5.3328 11.4152 5.44441 11.192 5.66762C10.9688 5.89084 10.8571 6.16018 10.8571 6.47566C10.8571 6.79114 10.9688 7.06048 11.192 7.2837C11.4152 7.50691 11.6845 7.61852 12 7.61852C12.3155 7.61852 12.5848 7.50691 12.808 7.2837ZM16 10.4757C16 12.0292 15.5804 13.4667 14.7411 14.7882C14.628 14.9608 14.4673 15.0471 14.2589 15.0471H1.74107C1.53274 15.0471 1.37202 14.9608 1.25893 14.7882C0.419643 13.4727 0 12.0352 0 10.4757C0 9.39233 0.21131 8.35661 0.633929 7.36852C1.05655 6.38042 1.625 5.52923 2.33929 4.81495C3.05357 4.10066 3.90476 3.53221 4.89286 3.10959C5.88095 2.68697 6.91667 2.47566 8 2.47566C9.08333 2.47566 10.119 2.68697 11.1071 3.10959C12.0952 3.53221 12.9464 4.10066 13.6607 4.81495C14.375 5.52923 14.9435 6.38042 15.3661 7.36852C15.7887 8.35661 16 9.39233 16 10.4757Z" fill="white"/>
</g>
<defs>
<clipPath id="clip0_1_10608">
<rect width="16" height="16" fill="white" transform="matrix(1 0 0 -1 0 16.1899)"/>
</clipPath>
</defs>
</svg>
