<svg width="18" height="17" viewBox="0 0 18 17" fill="none" xmlns="http://www.w3.org/2000/svg">
<path d="M5.30319 8.68994C4.3389 8.7197 3.55021 9.10066 2.93712 9.8328H1.74069C1.25259 9.8328 0.841878 9.71226 0.508545 9.47119C0.175212 9.23012 0.00854492 8.87744 0.00854492 8.41316C0.00854492 6.31196 0.377593 5.26137 1.11569 5.26137C1.1514 5.26137 1.28087 5.32387 1.50408 5.44887C1.7273 5.57387 2.01747 5.70036 2.37462 5.82833C2.73176 5.95631 3.08593 6.0203 3.43712 6.0203C3.83593 6.0203 4.23176 5.95185 4.62462 5.81494C4.59485 6.03518 4.57997 6.23161 4.57997 6.40423C4.57997 7.23161 4.82104 7.99351 5.30319 8.68994ZM14.8657 14.3774C14.8657 15.0917 14.6484 15.6557 14.2139 16.0694C13.7794 16.4831 13.202 16.6899 12.4818 16.6899H4.67819C3.95795 16.6899 3.38057 16.4831 2.94605 16.0694C2.51152 15.6557 2.29426 15.0917 2.29426 14.3774C2.29426 14.062 2.30468 13.7539 2.32551 13.4533C2.34634 13.1527 2.38801 12.8283 2.45051 12.4801C2.51301 12.1319 2.59188 11.809 2.68712 11.5114C2.78235 11.2138 2.91033 10.9236 3.07105 10.6408C3.23176 10.3581 3.41628 10.117 3.62462 9.91762C3.83295 9.71821 4.08741 9.55899 4.38801 9.43994C4.6886 9.32089 5.02045 9.26137 5.38355 9.26137C5.44307 9.26137 5.57105 9.32536 5.76747 9.45333C5.9639 9.58131 6.18116 9.72417 6.41926 9.88191C6.65735 10.0396 6.97581 10.1825 7.37462 10.3105C7.77343 10.4385 8.17521 10.5024 8.57997 10.5024C8.98474 10.5024 9.38652 10.4385 9.78533 10.3105C10.1841 10.1825 10.5026 10.0396 10.7407 9.88191C10.9788 9.72417 11.196 9.58131 11.3925 9.45333C11.5889 9.32536 11.7169 9.26137 11.7764 9.26137C12.1395 9.26137 12.4713 9.32089 12.7719 9.43994C13.0725 9.55899 13.327 9.71821 13.5353 9.91762C13.7437 10.117 13.9282 10.3581 14.0889 10.6408C14.2496 10.9236 14.3776 11.2138 14.4728 11.5114C14.5681 11.809 14.6469 12.1319 14.7094 12.4801C14.7719 12.8283 14.8136 13.1527 14.8344 13.4533C14.8553 13.7539 14.8657 14.062 14.8657 14.3774ZM5.05319 1.35958C5.05319 1.35958 5.16479 1.47119 5.38801 1.6944C5.61122 1.91762 5.72283 2.3447 5.72283 2.97565C5.72283 3.60661 5.49962 4.1453 5.05319 4.59173C4.60676 5.03816 4.06807 5.26137 3.43712 5.26137C2.80616 5.26137 2.26747 5.03816 1.82105 4.59173C1.37462 4.1453 1.1514 3.60661 1.1514 2.97565C1.1514 2.3447 1.37462 1.80601 1.82105 1.35958C2.26747 0.913155 2.80616 0.689941 3.43712 0.689941C4.06807 0.689941 4.60676 0.913155 5.05319 1.35958ZM11.0041 3.98012C11.0041 3.98012 11.1715 4.14753 11.5063 4.48235C11.8411 4.81717 12.0085 5.4578 12.0085 6.40423C12.0085 7.35066 11.6737 8.15869 11.0041 8.82833C10.3344 9.49798 9.5264 9.8328 8.57997 9.8328C7.63355 9.8328 6.82551 9.49798 6.15587 8.82833C5.48622 8.15869 5.1514 7.35066 5.1514 6.40423C5.1514 5.4578 5.48622 4.64976 6.15587 3.98012C6.82551 3.31048 7.63355 2.97565 8.57997 2.97565C9.5264 2.97565 10.3344 3.31048 11.0041 3.98012ZM17.1514 8.41316C17.1514 8.87744 16.9847 9.23012 16.6514 9.47119C16.3181 9.71226 15.9074 9.8328 15.4193 9.8328H14.2228C13.6097 9.10066 12.821 8.7197 11.8568 8.68994C12.3389 7.99351 12.58 7.23161 12.58 6.40423C12.58 6.23161 12.5651 6.03518 12.5353 5.81494C12.9282 5.95185 13.324 6.0203 13.7228 6.0203C14.074 6.0203 14.4282 5.95631 14.7853 5.82833C15.1425 5.70036 15.4327 5.57387 15.6559 5.44887C15.8791 5.32387 16.0085 5.26137 16.0443 5.26137C16.7824 5.26137 17.1514 6.31196 17.1514 8.41316ZM15.3389 1.35958C15.3389 1.35958 15.4505 1.47119 15.6737 1.6944C15.8969 1.91762 16.0085 2.3447 16.0085 2.97565C16.0085 3.60661 15.7853 4.1453 15.3389 4.59173C14.8925 5.03816 14.3538 5.26137 13.7228 5.26137C13.0919 5.26137 12.5532 5.03816 12.1068 4.59173C11.6603 4.1453 11.4371 3.60661 11.4371 2.97565C11.4371 2.3447 11.6603 1.80601 12.1068 1.35958C12.5532 0.913155 13.0919 0.689941 13.7228 0.689941C14.3538 0.689941 14.8925 0.913155 15.3389 1.35958Z" fill="url(#paint0_linear_1_10620)"/>
<defs>
<linearGradient id="paint0_linear_1_10620" x1="8.57997" y1="0.689941" x2="8.57997" y2="16.6899" gradientUnits="userSpaceOnUse">
<stop stop-color="#3408A4"/>
<stop offset="1" stop-color="#AA6C5E"/>
</linearGradient>
</defs>
</svg>
