<svg width="16" height="13" viewBox="0 0 16 13" fill="none" xmlns="http://www.w3.org/2000/svg">
<path d="M2.92857 10.0471C2.92857 10.0471 3.0119 10.1305 3.17857 10.2971C3.34524 10.4638 3.42857 10.7852 3.42857 11.2614C3.42857 11.7376 3.2619 12.1424 2.92857 12.4757C2.59524 12.809 2.19048 12.9757 1.71429 12.9757C1.2381 12.9757 0.833333 12.809 0.5 12.4757C0.166667 12.1424 0 11.7376 0 11.2614C0 10.7852 0.166667 10.3805 0.5 10.0471C0.833333 9.71379 1.2381 9.54712 1.71429 9.54712C2.19048 9.54712 2.59524 9.71379 2.92857 10.0471ZM2.92857 5.47569C2.92857 5.47569 3.0119 5.55903 3.17857 5.72569C3.34524 5.89236 3.42857 6.21379 3.42857 6.68998C3.42857 7.16617 3.2619 7.57093 2.92857 7.90426C2.59524 8.2376 2.19048 8.40426 1.71429 8.40426C1.2381 8.40426 0.833333 8.2376 0.5 7.90426C0.166667 7.57093 0 7.16617 0 6.68998C0 6.21379 0.166667 5.80903 0.5 5.47569C0.833333 5.14236 1.2381 4.97569 1.71429 4.97569C2.19048 4.97569 2.59524 5.14236 2.92857 5.47569ZM16 10.4043V12.1185C16 12.1959 15.9717 12.2629 15.9152 12.3194C15.8586 12.376 15.7917 12.4043 15.7143 12.4043H4.85714C4.77976 12.4043 4.7128 12.376 4.65625 12.3194C4.5997 12.2629 4.57143 12.1959 4.57143 12.1185V10.4043C4.57143 10.3269 4.5997 10.2599 4.65625 10.2034C4.7128 10.1468 4.77976 10.1185 4.85714 10.1185H15.7143C15.7917 10.1185 15.8586 10.1468 15.9152 10.2034C15.9717 10.2599 16 10.3269 16 10.4043ZM2.92857 0.904263C2.92857 0.904263 3.0119 0.987597 3.17857 1.15426C3.34524 1.32093 3.42857 1.64236 3.42857 2.11855C3.42857 2.59474 3.2619 2.9995 2.92857 3.33284C2.59524 3.66617 2.19048 3.83284 1.71429 3.83284C1.2381 3.83284 0.833333 3.66617 0.5 3.33284C0.166667 2.9995 0 2.59474 0 2.11855C0 1.64236 0.166667 1.2376 0.5 0.904263C0.833333 0.57093 1.2381 0.404263 1.71429 0.404263C2.19048 0.404263 2.59524 0.57093 2.92857 0.904263ZM16 5.83284V7.54712C16 7.6245 15.9717 7.69147 15.9152 7.74801C15.8586 7.80456 15.7917 7.83284 15.7143 7.83284H4.85714C4.77976 7.83284 4.7128 7.80456 4.65625 7.74801C4.5997 7.69147 4.57143 7.6245 4.57143 7.54712V5.83284C4.57143 5.75545 4.5997 5.68849 4.65625 5.63194C4.7128 5.57539 4.77976 5.54712 4.85714 5.54712H15.7143C15.7917 5.54712 15.8586 5.57539 15.9152 5.63194C15.9717 5.68849 16 5.75545 16 5.83284ZM16 1.26141V2.97569C16 3.05307 15.9717 3.12004 15.9152 3.17659C15.8586 3.23313 15.7917 3.26141 15.7143 3.26141H4.85714C4.77976 3.26141 4.7128 3.23313 4.65625 3.17659C4.5997 3.12004 4.57143 3.05307 4.57143 2.97569V1.26141C4.57143 1.18403 4.5997 1.11706 4.65625 1.06051C4.7128 1.00397 4.77976 0.975692 4.85714 0.975692H15.7143C15.7917 0.975692 15.8586 1.00397 15.9152 1.06051C15.9717 1.11706 16 1.18403 16 1.26141Z" fill="white"/>
</svg>
