<svg width="24" height="20" viewBox="0 0 24 20" fill="none" xmlns="http://www.w3.org/2000/svg">
<g clip-path="url(#clip0_1_7903)">
<path d="M11.2758 0L21.9901 4.28571V5.71428H20.5615C20.5615 5.90774 20.4853 6.07515 20.3327 6.21652C20.1802 6.35789 19.9998 6.42857 19.7914 6.42857H2.76018C2.55185 6.42857 2.37142 6.35789 2.21889 6.21652C2.06636 6.07515 1.99009 5.90774 1.99009 5.71428H0.561523V4.28571L11.2758 0ZM3.41867 7.14286H6.27581V15.7143H7.70438V7.14286H10.5615V15.7143H11.9901V7.14286H14.8472V15.7143H16.2758V7.14286H19.133V15.7143H19.7914C19.9998 15.7143 20.1802 15.785 20.3327 15.9263C20.4853 16.0677 20.5615 16.2351 20.5615 16.4286V17.1429H1.99009V16.4286C1.99009 16.2351 2.06636 16.0677 2.21889 15.9263C2.37142 15.785 2.55185 15.7143 2.76018 15.7143H3.41867V7.14286ZM21.22 17.8571C21.4283 17.8571 21.6088 17.9278 21.7613 18.0692C21.9138 18.2106 21.9901 18.378 21.9901 18.5714V20H0.561523V18.5714C0.561523 18.378 0.637788 18.2106 0.790318 18.0692C0.942848 17.9278 1.12328 17.8571 1.33161 17.8571H21.22Z" fill="url(#paint0_linear_1_7903)"/>
</g>
<defs>
<linearGradient id="paint0_linear_1_7903" x1="11.2758" y1="20" x2="11.2758" y2="0" gradientUnits="userSpaceOnUse">
<stop stop-color="#3408A4"/>
<stop offset="1" stop-color="#A96C5F"/>
</linearGradient>
<clipPath id="clip0_1_7903">
<rect width="22.86" height="20" fill="white" transform="matrix(1 0 0 -1 0.560059 20)"/>
</clipPath>
</defs>
</svg>
