<svg width="22" height="20" viewBox="0 0 22 20" fill="none" xmlns="http://www.w3.org/2000/svg">
<g clip-path="url(#clip0_1_7897)">
<path d="M6.90395 10C5.69859 10.0372 4.71273 10.5134 3.94636 11.4286H2.45082C1.8407 11.4286 1.32731 11.2779 0.910645 10.9766C0.493978 10.6752 0.285645 10.2344 0.285645 9.65402C0.285645 7.02753 0.746954 5.71428 1.66957 5.71428C1.71422 5.71428 1.87605 5.79241 2.15506 5.94866C2.43408 6.10491 2.79681 6.26302 3.24323 6.42299C3.68966 6.58296 4.13237 6.66295 4.57136 6.66295C5.06987 6.66295 5.56466 6.57738 6.05573 6.40625C6.01853 6.68155 5.99993 6.92708 5.99993 7.14286C5.99993 8.17708 6.30127 9.12946 6.90395 10ZM18.8571 17.1094C18.8571 18.0022 18.5855 18.7072 18.0423 19.2243C17.4992 19.7414 16.7775 20 15.8772 20H6.1227C5.2224 20 4.50067 19.7414 3.95752 19.2243C3.41436 18.7072 3.14279 18.0022 3.14279 17.1094C3.14279 16.715 3.15581 16.33 3.18185 15.9542C3.20789 15.5785 3.25997 15.173 3.3381 14.7377C3.41622 14.3025 3.51481 13.8988 3.63386 13.5268C3.75291 13.1548 3.91288 12.792 4.11377 12.4386C4.31466 12.0852 4.54532 11.7839 4.80573 11.5346C5.06615 11.2853 5.38423 11.0863 5.75997 10.9375C6.13572 10.7887 6.55053 10.7143 7.00439 10.7143C7.0788 10.7143 7.23877 10.7943 7.48431 10.9542C7.72984 11.1142 8.00142 11.2928 8.29904 11.49C8.59666 11.6871 8.99472 11.8657 9.49323 12.0257C9.99175 12.1856 10.494 12.2656 10.9999 12.2656C11.5059 12.2656 12.0081 12.1856 12.5066 12.0257C13.0051 11.8657 13.4032 11.6871 13.7008 11.49C13.9984 11.2928 14.27 11.1142 14.5156 10.9542C14.7611 10.7943 14.9211 10.7143 14.9955 10.7143C15.4493 10.7143 15.8641 10.7887 16.2399 10.9375C16.6156 11.0863 16.9337 11.2853 17.1941 11.5346C17.4545 11.7839 17.6852 12.0852 17.8861 12.4386C18.087 12.792 18.247 13.1548 18.366 13.5268C18.4851 13.8988 18.5836 14.3025 18.6618 14.7377C18.7399 15.173 18.792 15.5785 18.818 15.9542C18.8441 16.33 18.8571 16.715 18.8571 17.1094ZM6.59145 0.837053C6.59145 0.837053 6.73096 0.976562 7.00997 1.25558C7.28899 1.5346 7.4285 2.06845 7.4285 2.85714C7.4285 3.64583 7.14948 4.3192 6.59145 4.87723C6.03341 5.43527 5.36005 5.71428 4.57136 5.71428C3.78267 5.71428 3.10931 5.43527 2.55127 4.87723C1.99323 4.3192 1.71422 3.64583 1.71422 2.85714C1.71422 2.06845 1.99323 1.39509 2.55127 0.837053C3.10931 0.279016 3.78267 0 4.57136 0C5.36005 0 6.03341 0.279016 6.59145 0.837053ZM14.0301 4.11272C14.0301 4.11272 14.2393 4.32199 14.6579 4.74051C15.0764 5.15904 15.2856 5.95982 15.2856 7.14286C15.2856 8.32589 14.8671 9.33594 14.0301 10.173C13.193 11.01 12.183 11.4286 10.9999 11.4286C9.81689 11.4286 8.80685 11.01 7.9698 10.173C7.13274 9.33594 6.71422 8.32589 6.71422 7.14286C6.71422 5.95982 7.13274 4.94978 7.9698 4.11272C8.80685 3.27567 9.81689 2.85714 10.9999 2.85714C12.183 2.85714 13.193 3.27567 14.0301 4.11272ZM21.7142 9.65402C21.7142 10.2344 21.5059 10.6752 21.0892 10.9766C20.6726 11.2779 20.1592 11.4286 19.549 11.4286H18.0535C17.2871 10.5134 16.3013 10.0372 15.0959 10C15.6986 9.12946 15.9999 8.17708 15.9999 7.14286C15.9999 6.92708 15.9813 6.68155 15.9441 6.40625C16.4352 6.57738 16.93 6.66295 17.4285 6.66295C17.8675 6.66295 18.3102 6.58296 18.7566 6.42299C19.2031 6.26302 19.5658 6.10491 19.8448 5.94866C20.1238 5.79241 20.2856 5.71428 20.3303 5.71428C21.2529 5.71428 21.7142 7.02753 21.7142 9.65402ZM19.4486 0.837053C19.4486 0.837053 19.5881 0.976562 19.8671 1.25558C20.1461 1.5346 20.2856 2.06845 20.2856 2.85714C20.2856 3.64583 20.0066 4.3192 19.4486 4.87723C18.8906 5.43527 18.2172 5.71428 17.4285 5.71428C16.6398 5.71428 15.9664 5.43527 15.4084 4.87723C14.8504 4.3192 14.5714 3.64583 14.5714 2.85714C14.5714 2.06845 14.8504 1.39509 15.4084 0.837053C15.9664 0.279016 16.6398 0 17.4285 0C18.2172 0 18.8906 0.279016 19.4486 0.837053Z" fill="url(#paint0_linear_1_7897)"/>
</g>
<defs>
<linearGradient id="paint0_linear_1_7897" x1="10.9999" y1="20" x2="10.9999" y2="0" gradientUnits="userSpaceOnUse">
<stop stop-color="#3408A4"/>
<stop offset="1" stop-color="#A96C5F"/>
</linearGradient>
<clipPath id="clip0_1_7897">
<rect width="21.44" height="20" fill="white" transform="matrix(1 0 0 -1 0.280029 20)"/>
</clipPath>
</defs>
</svg>
