<svg width="16" height="20" viewBox="0 0 16 20" fill="none" xmlns="http://www.w3.org/2000/svg">
<g clip-path="url(#clip0_1_7891)">
<path d="M15.1329 15.6139C15.1329 16.4249 14.9004 17.1205 14.4353 17.7009C13.9703 18.2813 13.4104 18.5714 12.7557 18.5714H3.2244C2.56964 18.5714 2.00974 18.2813 1.54471 17.7009C1.07968 17.1205 0.847168 16.4249 0.847168 15.6139C0.847168 14.9814 0.87879 14.3843 0.942034 13.8226C1.00528 13.2608 1.12247 12.6953 1.2936 12.1261C1.46473 11.5569 1.68236 11.0696 1.9465 10.6641C2.21064 10.2586 2.56034 9.92747 2.99561 9.67077C3.43087 9.41408 3.93125 9.28573 4.49672 9.28573C5.47142 10.2381 6.63586 10.7143 7.99003 10.7143C9.34419 10.7143 10.5086 10.2381 11.4833 9.28573C12.0488 9.28573 12.5492 9.41408 12.9844 9.67077C13.4197 9.92747 13.7694 10.2586 14.0336 10.6641C14.2977 11.0696 14.5153 11.5569 14.6865 12.1261C14.8576 12.6953 14.9748 13.2608 15.038 13.8226C15.1013 14.3843 15.1329 14.9814 15.1329 15.6139ZM11.0202 2.68417C11.0202 2.68417 11.2294 2.89343 11.6479 3.31196C12.0665 3.73048 12.2757 4.53126 12.2757 5.7143C12.2757 6.89734 11.8572 7.90738 11.0202 8.74443C10.1831 9.58149 9.17306 10 7.99003 10C6.80699 10 5.79695 9.58149 4.95989 8.74443C4.12284 7.90738 3.70431 6.89734 3.70431 5.7143C3.70431 4.53126 4.12284 3.52122 4.95989 2.68417C5.79695 1.84711 6.80699 1.42859 7.99003 1.42859C9.17306 1.42859 10.1831 1.84711 11.0202 2.68417Z" fill="url(#paint0_linear_1_7891)"/>
</g>
<defs>
<linearGradient id="paint0_linear_1_7891" x1="7.99003" y1="18.5714" x2="7.99003" y2="1.42859" gradientUnits="userSpaceOnUse">
<stop stop-color="#3408A4"/>
<stop offset="1" stop-color="#A96C5F"/>
</linearGradient>
<clipPath id="clip0_1_7891">
<rect width="14.3" height="20" fill="white" transform="matrix(1 0 0 -1 0.840088 20)"/>
</clipPath>
</defs>
</svg>
