<svg width="14" height="15" viewBox="0 0 14 15" fill="none" xmlns="http://www.w3.org/2000/svg">
<path d="M10.2656 4.49217C10.2656 4.49217 10.388 4.64582 10.6328 4.95311C10.8776 5.2604 11 5.77603 11 6.49999C11 7.22395 10.7552 7.89322 10.2656 8.5078C9.77604 9.12238 9.10807 9.60806 8.26172 9.96483C7.41536 10.3216 6.49479 10.5 5.5 10.5C5.05208 10.5 4.59375 10.4583 4.125 10.375C3.47917 10.8333 2.75521 11.1667 1.95312 11.375C1.76562 11.4219 1.54167 11.4635 1.28125 11.5H1.25781C1.20052 11.5 1.14714 11.4792 1.09766 11.4375C1.04818 11.3958 1.01823 11.3411 1.00781 11.2734C1.0026 11.2578 1 11.2409 1 11.2226C1 11.2044 1.0013 11.1875 1.00391 11.1719C1.00651 11.1562 1.01172 11.1406 1.01953 11.125C1.02734 11.1094 1.03385 11.0963 1.03906 11.0859C1.04427 11.0755 1.05339 11.0612 1.06641 11.043C1.07943 11.0247 1.08984 11.0117 1.09766 11.0039C1.10547 10.9961 1.11719 10.9831 1.13281 10.9648C1.14844 10.9466 1.15885 10.9349 1.16406 10.9297C1.1901 10.8984 1.25 10.8333 1.34375 10.7344C1.4375 10.6354 1.50521 10.5586 1.54688 10.5039C1.58854 10.4492 1.64714 10.3737 1.72266 10.2773C1.79818 10.181 1.86328 10.0807 1.91797 9.97655C1.97266 9.87238 2.02604 9.7578 2.07812 9.6328C1.43229 9.2578 0.924479 8.79686 0.554688 8.24999C0.184896 7.70311 0 7.11978 0 6.49999C0 5.77603 0.244792 5.10676 0.734375 4.49217C1.22396 3.87759 1.89193 3.39191 2.73828 3.03514C3.58464 2.67837 4.50521 2.49999 5.5 2.49999C6.49479 2.49999 7.41536 2.67837 8.26172 3.03514C9.10807 3.39191 9.77604 3.87759 10.2656 4.49217ZM14 8.49999C14 9.12499 13.8151 9.70962 13.4453 10.2539C13.0755 10.7982 12.5677 11.2578 11.9219 11.6328C11.974 11.7578 12.0273 11.8724 12.082 11.9765C12.1367 12.0807 12.2018 12.181 12.2773 12.2773C12.3529 12.3737 12.4115 12.4492 12.4531 12.5039C12.4948 12.5586 12.5625 12.6354 12.6562 12.7344C12.75 12.8333 12.8099 12.8984 12.8359 12.9297C12.8411 12.9349 12.8516 12.9466 12.8672 12.9648C12.8828 12.9831 12.8945 12.9961 12.9023 13.0039C12.9102 13.0117 12.9206 13.0247 12.9336 13.043C12.9466 13.0612 12.9557 13.0755 12.9609 13.0859C12.9661 13.0963 12.9727 13.1094 12.9805 13.125C12.9883 13.1406 12.9935 13.1562 12.9961 13.1719C12.9987 13.1875 13 13.2044 13 13.2226C13 13.2409 12.9974 13.2578 12.9922 13.2734C12.9766 13.3463 12.9427 13.4036 12.8906 13.4453C12.8385 13.487 12.7812 13.5052 12.7188 13.5C12.4583 13.4635 12.2344 13.4219 12.0469 13.375C11.2448 13.1667 10.5208 12.8333 9.875 12.375C9.40625 12.4583 8.94792 12.5 8.5 12.5C7.08854 12.5 5.85938 12.1562 4.8125 11.4687C5.11458 11.4896 5.34375 11.5 5.5 11.5C6.33854 11.5 7.14323 11.3828 7.91406 11.1484C8.6849 10.914 9.3724 10.5781 9.97656 10.1406C10.6276 9.66144 11.1276 9.10936 11.4766 8.48436C11.8255 7.85936 12 7.1979 12 6.49999C12 6.09895 11.9401 5.70311 11.8203 5.31249C12.4922 5.68228 13.0234 6.14582 13.4141 6.70311C13.8047 7.2604 14 7.85936 14 8.49999Z" fill="#555555"/>
</svg>
