<svg width="18" height="15" viewBox="0 0 18 15" fill="none" xmlns="http://www.w3.org/2000/svg">
<path d="M15.7228 0.832832C16.1157 0.832832 16.452 0.972713 16.7318 1.25248C17.0115 1.53224 17.1514 1.86855 17.1514 2.2614V13.1185C17.1514 13.5114 17.0115 13.8477 16.7318 14.1275C16.452 14.4072 16.1157 14.5471 15.7228 14.5471H1.43712C1.04426 14.5471 0.70795 14.4072 0.428188 14.1275C0.148426 13.8477 0.00854492 13.5114 0.00854492 13.1185V2.2614C0.00854492 1.86855 0.148426 1.53224 0.428188 1.25248C0.70795 0.972713 1.04426 0.832832 1.43712 0.832832H15.7228ZM1.43712 1.97569C1.35974 1.97569 1.29277 2.00396 1.23622 2.06051C1.17968 2.11706 1.1514 2.18402 1.1514 2.2614V4.2614H16.0085V2.2614C16.0085 2.18402 15.9803 2.11706 15.9237 2.06051C15.8672 2.00396 15.8002 1.97569 15.7228 1.97569H1.43712ZM15.7228 13.4043C15.8002 13.4043 15.8672 13.376 15.9237 13.3194C15.9803 13.2629 16.0085 13.1959 16.0085 13.1185V7.68998H1.1514V13.1185C1.1514 13.1959 1.17968 13.2629 1.23622 13.3194C1.29277 13.376 1.35974 13.4043 1.43712 13.4043H15.7228ZM2.29426 12.2614V11.1185H4.57997V12.2614H2.29426ZM5.72283 12.2614V11.1185H9.1514V12.2614H5.72283Z" fill="url(#paint0_linear_1_10626)"/>
<defs>
<linearGradient id="paint0_linear_1_10626" x1="8.57997" y1="0.832832" x2="8.57997" y2="14.5471" gradientUnits="userSpaceOnUse">
<stop stop-color="#3408A4"/>
<stop offset="1" stop-color="#AA6C5E"/>
</linearGradient>
</defs>
</svg>
