<svg width="12" height="15" viewBox="0 0 12 15" fill="none" xmlns="http://www.w3.org/2000/svg">
<path d="M11.4344 12.181C11.4344 12.8299 11.2484 13.3864 10.8764 13.8507C10.5044 14.315 10.0565 14.5471 9.53265 14.5471H1.90765C1.38384 14.5471 0.935919 14.315 0.563895 13.8507C0.191871 13.3864 0.00585938 12.8299 0.00585938 12.181C0.00585938 11.6751 0.031157 11.1974 0.0817522 10.748C0.132347 10.2986 0.226097 9.84623 0.363002 9.39087C0.499907 8.93551 0.674014 8.54563 0.885324 8.22123C1.09663 7.89682 1.3764 7.63194 1.72461 7.42658C2.07282 7.22123 2.47312 7.11855 2.9255 7.11855C3.70526 7.88045 4.63681 8.2614 5.72015 8.2614C6.80348 8.2614 7.73503 7.88045 8.51479 7.11855C8.96717 7.11855 9.36747 7.22123 9.71568 7.42658C10.0639 7.63194 10.3437 7.89682 10.555 8.22123C10.7663 8.54563 10.9404 8.93551 11.0773 9.39087C11.2142 9.84623 11.3079 10.2986 11.3585 10.748C11.4091 11.1974 11.4344 11.6751 11.4344 12.181ZM8.14425 1.8373C8.14425 1.8373 8.31166 2.00471 8.64648 2.33953C8.98131 2.67435 9.14872 3.31498 9.14872 4.2614C9.14872 5.20783 8.8139 6.01587 8.14425 6.68551C7.47461 7.35515 6.66657 7.68998 5.72015 7.68998C4.77372 7.68998 3.96568 7.35515 3.29604 6.68551C2.6264 6.01587 2.29157 5.20783 2.29157 4.2614C2.29157 3.31498 2.6264 2.50694 3.29604 1.8373C3.96568 1.16765 4.77372 0.832832 5.72015 0.832832C6.66657 0.832832 7.47461 1.16765 8.14425 1.8373Z" fill="white"/>
</svg>
